<?xml version="1.0" encoding="UTF-8" standalone="no"?>
<svg
   class="svglite"
   width="567.00pt"
   height="368.00pt"
   viewBox="0 0 567.00 368.00"
   version="1.1"
   id="svg22"
   sodipodi:docname="body_size_by_diet.svg"
   inkscape:version="1.3.2 (091e20e, 2023-11-25)"
   xmlns:inkscape="http://www.inkscape.org/namespaces/inkscape"
   xmlns:sodipodi="http://sodipodi.sourceforge.net/DTD/sodipodi-0.dtd"
   xmlns="http://www.w3.org/2000/svg"
   xmlns:svg="http://www.w3.org/2000/svg">
  <sodipodi:namedview
     id="namedview22"
     pagecolor="#ffffff"
     bordercolor="#000000"
     borderopacity="0.25"
     inkscape:showpageshadow="2"
     inkscape:pageopacity="0.0"
     inkscape:pagecheckerboard="0"
     inkscape:deskcolor="#d1d1d1"
     inkscape:document-units="pt"
     inkscape:zoom="0.54551848"
     inkscape:cx="400.53638"
     inkscape:cy="393.20391"
     inkscape:window-width="1472"
     inkscape:window-height="920"
     inkscape:window-x="0"
     inkscape:window-y="36"
     inkscape:window-maximized="0"
     inkscape:current-layer="g22" />
  <defs
     id="defs1">
    <style
       type="text/css"
       id="style1"><![CDATA[
    .svglite line, .svglite polyline, .svglite polygon, .svglite path, .svglite rect, .svglite circle {
      fill: none;
      stroke: #000000;
      stroke-linecap: round;
      stroke-linejoin: round;
      stroke-miterlimit: 10.00;
    }
    .svglite text {
      white-space: pre;
    }
  ]]></style>
  </defs>
  <rect
     width="100%"
     height="100%"
     style="stroke: none; fill: #FFFFFF;"
     id="rect1" />
  <defs
     id="defs2">
    <clipPath
       id="cpMC4wMHw1NjcuMDB8MC4wMHwzNjguMDA=">
      <rect
         x="0.00"
         y="0.00"
         width="567.00"
         height="368.00"
         id="rect2" />
    </clipPath>
  </defs>
  <g
     clip-path="url(#cpMC4wMHw1NjcuMDB8MC4wMHwzNjguMDA=)"
     id="g3">
    <rect
       x="0.00"
       y="0.00"
       width="567.00"
       height="368.00"
       style="stroke-width: 1.07; stroke: #FFFFFF; fill: #FFFFFF;"
       id="rect3" />
  </g>
  <defs
     id="defs4">
    <clipPath
       id="cpNDAuNjB8NTYxLjUyfDUuNDh8MzM2LjI3">
      <rect
         x="40.60"
         y="5.48"
         width="520.92"
         height="330.79"
         id="rect4" />
    </clipPath>
  </defs>
  <g
     clip-path="url(#cpNDAuNjB8NTYxLjUyfDUuNDh8MzM2LjI3)"
     id="g7"
     style="stroke-width:3;stroke-dasharray:none">
    <rect
       x="40.60"
       y="5.48"
       width="520.92"
       height="330.79"
       style="stroke-width:3;stroke:none;fill:#FFFFFF;stroke-dasharray:none"
       id="rect5" />
    <polygon
       points="64.28,315.16 65.21,314.63 66.14,314.07 67.06,313.48 67.99,312.84 68.92,312.16 69.84,311.45 70.77,310.70 71.70,309.89 72.62,309.04 73.55,308.16 74.48,307.23 75.40,306.24 76.33,305.21 77.26,304.14 78.18,303.01 79.11,301.83 80.04,300.60 80.96,299.33 81.89,298.01 82.82,296.63 83.74,295.20 84.67,293.73 85.60,292.20 86.52,290.62 87.45,288.99 88.38,287.32 89.30,285.59 90.23,283.82 91.16,282.00 92.08,280.14 93.01,278.23 93.94,276.27 94.86,274.27 95.79,272.24 96.72,270.16 97.64,268.03 98.57,265.88 99.50,263.69 100.42,261.46 101.35,259.19 102.28,256.90 103.21,254.57 104.13,252.21 105.06,249.83 105.99,247.42 106.91,244.98 107.84,242.52 108.77,240.03 109.69,237.53 110.62,235.01 111.55,232.47 112.47,229.91 113.40,227.34 114.33,224.76 115.25,222.16 116.18,219.56 117.11,216.95 118.03,214.34 118.96,211.72 119.89,209.11 120.81,206.49 121.74,203.88 122.67,201.27 123.59,198.67 124.52,196.08 125.45,193.51 126.37,190.95 127.30,188.41 128.23,185.89 129.15,183.40 130.08,180.94 131.01,178.50 131.93,176.09 132.86,173.73 133.79,171.41 134.71,169.13 135.64,166.89 136.57,164.72 137.49,162.59 138.42,160.52 139.35,158.51 140.27,156.57 141.20,154.69 142.13,152.88 143.05,151.14 143.98,149.49 144.91,147.92 145.83,146.41 146.76,145.00 147.69,143.68 148.61,142.45 149.54,141.29 150.47,140.24 151.40,139.29 152.32,138.42 153.25,137.64 154.18,136.97 155.10,136.40 156.03,135.91 156.96,135.51 157.88,135.24 158.81,135.05 159.74,134.94 160.66,134.91 161.59,135.01 162.52,135.18 163.44,135.43 164.37,135.76 165.30,136.19 166.22,136.69 167.15,137.25 168.08,137.88 169.00,138.60 169.93,139.38 170.86,140.20 171.78,141.08 172.71,142.03 173.64,143.01 174.56,144.03 175.49,145.10 176.42,146.20 177.34,147.32 178.27,148.47 179.20,149.64 180.12,150.82 181.05,152.02 181.98,153.21 182.90,154.41 183.83,155.61 184.76,156.80 185.68,157.97 186.61,159.13 187.54,160.27 188.46,161.39 189.39,162.48 190.32,163.54 191.24,164.56 192.17,165.55 193.10,166.50 194.02,167.40 194.95,168.26 195.88,169.07 196.81,169.84 197.73,170.55 198.66,171.21 199.59,171.82 200.51,172.38 201.44,172.86 202.37,173.30 203.29,173.69 204.22,174.01 205.15,174.27 206.07,174.48 207.00,174.63 207.93,174.72 208.85,174.75 209.78,174.73 210.71,174.66 211.63,174.52 212.56,174.33 213.49,174.08 214.41,173.80 215.34,173.44 216.27,173.04 217.19,172.60 218.12,172.11 219.05,171.56 219.97,170.97 220.90,170.33 221.83,169.66 222.75,168.94 223.68,168.18 224.61,167.38 225.53,166.55 226.46,165.67 227.39,164.76 228.31,163.82 229.24,162.85 230.17,161.84 231.09,160.80 232.02,159.74 232.95,158.65 233.87,157.53 234.80,156.40 235.73,155.24 236.65,154.06 237.58,152.87 238.51,151.66 239.43,150.44 240.36,149.21 241.29,147.97 242.21,146.72 243.14,145.47 244.07,144.23 245.00,142.98 245.92,141.74 246.85,140.50 247.78,139.28 248.70,138.07 249.63,136.88 250.56,135.71 251.48,134.56 252.41,133.44 253.34,132.35 254.26,131.28 255.19,130.27 256.12,129.29 257.04,128.34 257.97,127.44 258.90,126.60 259.82,125.81 260.75,125.07 261.68,124.38 262.60,123.76 263.53,123.20 264.46,122.70 265.38,122.26 266.31,121.90 267.24,121.61 268.16,121.38 269.09,121.23 270.02,121.16 270.94,121.15 271.87,121.21 272.80,121.36 273.72,121.59 274.65,121.89 275.58,122.25 276.50,122.70 277.43,123.23 278.36,123.82 279.28,124.47 280.21,125.22 281.14,126.03 282.06,126.89 282.99,127.82 283.92,128.83 284.84,129.89 285.77,131.01 286.70,132.18 287.62,133.41 288.55,134.69 289.48,136.01 290.40,137.38 291.33,138.80 292.26,140.24 293.19,141.72 294.11,143.24 295.04,144.78 295.97,146.35 296.89,147.93 297.82,149.54 298.75,151.16 299.67,152.79 300.60,154.43 301.53,156.07 302.45,157.72 303.38,159.37 304.31,161.01 305.23,162.64 306.16,164.27 307.09,165.88 308.01,167.48 308.94,169.07 309.87,170.63 310.79,172.18 311.72,173.71 312.65,175.21 313.57,176.69 314.50,178.15 315.43,179.59 316.35,180.99 317.28,182.37 318.21,183.72 319.13,185.06 320.06,186.36 320.99,187.63 321.91,188.89 322.84,190.12 323.77,191.33 324.69,192.51 325.62,193.68 326.55,194.82 327.47,195.95 328.40,197.05 329.33,198.15 330.25,199.23 331.18,200.29 332.11,201.35 333.03,202.39 333.96,203.42 334.89,204.45 335.81,205.47 336.74,206.49 337.67,207.50 338.60,208.51 339.52,209.52 340.45,210.53 341.38,211.54 342.30,212.55 343.23,213.57 344.16,214.59 345.08,215.61 346.01,216.63 346.94,217.67 347.86,218.70 348.79,219.74 349.72,220.79 350.64,221.84 351.57,222.90 352.50,223.97 353.42,225.05 354.35,226.13 355.28,227.21 356.20,228.30 357.13,229.40 358.06,230.51 358.98,231.62 359.91,232.74 360.84,233.87 361.76,235.00 362.69,236.13 363.62,237.27 364.54,238.42 365.47,239.57 366.40,240.73 367.32,241.89 368.25,243.05 369.18,244.22 370.10,245.39 371.03,246.56 371.96,247.74 372.88,248.91 373.81,250.09 374.74,251.27 375.66,252.45 376.59,253.63 377.52,254.81 378.44,255.99 379.37,257.17 380.30,258.34 381.22,259.52 382.15,260.68 383.08,261.85 384.00,263.01 384.93,264.16 385.86,265.31 386.79,266.45 387.71,267.59 388.64,268.72 389.57,269.84 390.49,270.95 391.42,272.05 392.35,273.15 393.27,274.23 394.20,275.31 395.13,276.37 396.05,277.42 396.98,278.46 397.91,279.49 398.83,280.51 399.76,281.52 400.69,282.51 401.61,283.49 402.54,284.45 403.47,285.41 404.39,286.35 405.32,287.27 406.25,288.18 407.17,289.08 408.10,289.96 409.03,290.83 409.95,291.68 410.88,292.51 411.81,293.34 412.73,294.14 413.66,294.93 414.59,295.71 415.51,296.47 416.44,297.21 417.37,297.94 418.29,298.65 419.22,299.35 420.15,300.04 421.07,300.70 422.00,301.35 422.93,301.99 423.85,302.62 424.78,303.22 425.71,303.82 426.63,304.40 427.56,304.96 428.49,305.51 429.41,306.05 430.34,306.58 431.27,307.09 432.20,307.59 433.12,308.08 434.05,308.55 434.98,309.02 435.90,309.47 436.83,309.91 437.76,310.34 438.68,310.76 439.61,311.17 440.54,311.57 441.46,311.96 442.39,312.34 443.32,312.71 444.24,313.07 445.17,313.42 446.10,313.76 447.02,314.09 447.95,314.42 448.88,314.73 449.80,315.04 450.73,315.33 451.66,315.62 452.58,315.90 453.51,316.17 454.44,316.44 455.36,316.69 456.29,316.94 457.22,317.17 458.14,317.40 459.07,317.62 460.00,317.84 460.92,318.04 461.85,318.23 462.78,318.42 463.70,318.60 464.63,318.77 465.56,318.93 466.48,319.09 467.41,319.24 468.34,319.38 469.26,319.51 470.19,319.64 471.12,319.76 472.04,319.87 472.97,319.98 473.90,320.08 474.82,320.17 475.75,320.25 476.68,320.34 477.60,320.41 478.53,320.48 479.46,320.55 480.39,320.61 481.31,320.67 482.24,320.72 483.17,320.77 484.09,320.81 485.02,320.85 485.95,320.89 486.87,320.92 487.80,320.96 488.73,320.99 489.65,321.01 490.58,321.03 491.51,321.06 492.43,321.08 493.36,321.09 494.29,321.11 495.21,321.12 496.14,321.14 497.07,321.15 497.99,321.16 498.92,321.17 499.85,321.17 500.77,321.18 501.70,321.19 502.63,321.19 503.55,321.20 504.48,321.20 505.41,321.21 506.33,321.21 507.26,321.21 508.19,321.21 509.11,321.22 510.04,321.22 510.97,321.22 511.89,321.22 512.82,321.22 513.75,321.22 514.67,321.23 515.60,321.23 516.53,321.23 517.45,321.23 518.38,321.23 519.31,321.23 520.23,321.23 521.16,321.23 522.09,321.23 523.01,321.23 523.94,321.23 524.87,321.23 525.80,321.23 526.72,321.23 527.65,321.23 528.58,321.23 529.50,321.23 530.43,321.23 531.36,321.23 532.28,321.23 533.21,321.23 534.14,321.23 535.06,321.23 535.99,321.23 536.92,321.23 537.84,321.23 537.84,321.23 536.92,321.23 535.99,321.23 535.06,321.23 534.14,321.23 533.21,321.23 532.28,321.23 531.36,321.23 530.43,321.23 529.50,321.23 528.58,321.23 527.65,321.23 526.72,321.23 525.80,321.23 524.87,321.23 523.94,321.23 523.01,321.23 522.09,321.23 521.16,321.23 520.23,321.23 519.31,321.23 518.38,321.23 517.45,321.23 516.53,321.23 515.60,321.23 514.67,321.23 513.75,321.23 512.82,321.23 511.89,321.23 510.97,321.23 510.04,321.23 509.11,321.23 508.19,321.23 507.26,321.23 506.33,321.23 505.41,321.23 504.48,321.23 503.55,321.23 502.63,321.23 501.70,321.23 500.77,321.23 499.85,321.23 498.92,321.23 497.99,321.23 497.07,321.23 496.14,321.23 495.21,321.23 494.29,321.23 493.36,321.23 492.43,321.23 491.51,321.23 490.58,321.23 489.65,321.23 488.73,321.23 487.80,321.23 486.87,321.23 485.95,321.23 485.02,321.23 484.09,321.23 483.17,321.23 482.24,321.23 481.31,321.23 480.39,321.23 479.46,321.23 478.53,321.23 477.60,321.23 476.68,321.23 475.75,321.23 474.82,321.23 473.90,321.23 472.97,321.23 472.04,321.23 471.12,321.23 470.19,321.23 469.26,321.23 468.34,321.23 467.41,321.23 466.48,321.23 465.56,321.23 464.63,321.23 463.70,321.23 462.78,321.23 461.85,321.23 460.92,321.23 460.00,321.23 459.07,321.23 458.14,321.23 457.22,321.23 456.29,321.23 455.36,321.23 454.44,321.23 453.51,321.23 452.58,321.23 451.66,321.23 450.73,321.23 449.80,321.23 448.88,321.23 447.95,321.23 447.02,321.23 446.10,321.23 445.17,321.23 444.24,321.23 443.32,321.23 442.39,321.23 441.46,321.23 440.54,321.23 439.61,321.23 438.68,321.23 437.76,321.23 436.83,321.23 435.90,321.23 434.98,321.23 434.05,321.23 433.12,321.23 432.20,321.23 431.27,321.23 430.34,321.23 429.41,321.23 428.49,321.23 427.56,321.23 426.63,321.23 425.71,321.23 424.78,321.23 423.85,321.23 422.93,321.23 422.00,321.23 421.07,321.23 420.15,321.23 419.22,321.23 418.29,321.23 417.37,321.23 416.44,321.23 415.51,321.23 414.59,321.23 413.66,321.23 412.73,321.23 411.81,321.23 410.88,321.23 409.95,321.23 409.03,321.23 408.10,321.23 407.17,321.23 406.25,321.23 405.32,321.23 404.39,321.23 403.47,321.23 402.54,321.23 401.61,321.23 400.69,321.23 399.76,321.23 398.83,321.23 397.91,321.23 396.98,321.23 396.05,321.23 395.13,321.23 394.20,321.23 393.27,321.23 392.35,321.23 391.42,321.23 390.49,321.23 389.57,321.23 388.64,321.23 387.71,321.23 386.79,321.23 385.86,321.23 384.93,321.23 384.00,321.23 383.08,321.23 382.15,321.23 381.22,321.23 380.30,321.23 379.37,321.23 378.44,321.23 377.52,321.23 376.59,321.23 375.66,321.23 374.74,321.23 373.81,321.23 372.88,321.23 371.96,321.23 371.03,321.23 370.10,321.23 369.18,321.23 368.25,321.23 367.32,321.23 366.40,321.23 365.47,321.23 364.54,321.23 363.62,321.23 362.69,321.23 361.76,321.23 360.84,321.23 359.91,321.23 358.98,321.23 358.06,321.23 357.13,321.23 356.20,321.23 355.28,321.23 354.35,321.23 353.42,321.23 352.50,321.23 351.57,321.23 350.64,321.23 349.72,321.23 348.79,321.23 347.86,321.23 346.94,321.23 346.01,321.23 345.08,321.23 344.16,321.23 343.23,321.23 342.30,321.23 341.38,321.23 340.45,321.23 339.52,321.23 338.60,321.23 337.67,321.23 336.74,321.23 335.81,321.23 334.89,321.23 333.96,321.23 333.03,321.23 332.11,321.23 331.18,321.23 330.25,321.23 329.33,321.23 328.40,321.23 327.47,321.23 326.55,321.23 325.62,321.23 324.69,321.23 323.77,321.23 322.84,321.23 321.91,321.23 320.99,321.23 320.06,321.23 319.13,321.23 318.21,321.23 317.28,321.23 316.35,321.23 315.43,321.23 314.50,321.23 313.57,321.23 312.65,321.23 311.72,321.23 310.79,321.23 309.87,321.23 308.94,321.23 308.01,321.23 307.09,321.23 306.16,321.23 305.23,321.23 304.31,321.23 303.38,321.23 302.45,321.23 301.53,321.23 300.60,321.23 299.67,321.23 298.75,321.23 297.82,321.23 296.89,321.23 295.97,321.23 295.04,321.23 294.11,321.23 293.19,321.23 292.26,321.23 291.33,321.23 290.40,321.23 289.48,321.23 288.55,321.23 287.62,321.23 286.70,321.23 285.77,321.23 284.84,321.23 283.92,321.23 282.99,321.23 282.06,321.23 281.14,321.23 280.21,321.23 279.28,321.23 278.36,321.23 277.43,321.23 276.50,321.23 275.58,321.23 274.65,321.23 273.72,321.23 272.80,321.23 271.87,321.23 270.94,321.23 270.02,321.23 269.09,321.23 268.16,321.23 267.24,321.23 266.31,321.23 265.38,321.23 264.46,321.23 263.53,321.23 262.60,321.23 261.68,321.23 260.75,321.23 259.82,321.23 258.90,321.23 257.97,321.23 257.04,321.23 256.12,321.23 255.19,321.23 254.26,321.23 253.34,321.23 252.41,321.23 251.48,321.23 250.56,321.23 249.63,321.23 248.70,321.23 247.78,321.23 246.85,321.23 245.92,321.23 245.00,321.23 244.07,321.23 243.14,321.23 242.21,321.23 241.29,321.23 240.36,321.23 239.43,321.23 238.51,321.23 237.58,321.23 236.65,321.23 235.73,321.23 234.80,321.23 233.87,321.23 232.95,321.23 232.02,321.23 231.09,321.23 230.17,321.23 229.24,321.23 228.31,321.23 227.39,321.23 226.46,321.23 225.53,321.23 224.61,321.23 223.68,321.23 222.75,321.23 221.83,321.23 220.90,321.23 219.97,321.23 219.05,321.23 218.12,321.23 217.19,321.23 216.27,321.23 215.34,321.23 214.41,321.23 213.49,321.23 212.56,321.23 211.63,321.23 210.71,321.23 209.78,321.23 208.85,321.23 207.93,321.23 207.00,321.23 206.07,321.23 205.15,321.23 204.22,321.23 203.29,321.23 202.37,321.23 201.44,321.23 200.51,321.23 199.59,321.23 198.66,321.23 197.73,321.23 196.81,321.23 195.88,321.23 194.95,321.23 194.02,321.23 193.10,321.23 192.17,321.23 191.24,321.23 190.32,321.23 189.39,321.23 188.46,321.23 187.54,321.23 186.61,321.23 185.68,321.23 184.76,321.23 183.83,321.23 182.90,321.23 181.98,321.23 181.05,321.23 180.12,321.23 179.20,321.23 178.27,321.23 177.34,321.23 176.42,321.23 175.49,321.23 174.56,321.23 173.64,321.23 172.71,321.23 171.78,321.23 170.86,321.23 169.93,321.23 169.00,321.23 168.08,321.23 167.15,321.23 166.22,321.23 165.30,321.23 164.37,321.23 163.44,321.23 162.52,321.23 161.59,321.23 160.66,321.23 159.74,321.23 158.81,321.23 157.88,321.23 156.96,321.23 156.03,321.23 155.10,321.23 154.18,321.23 153.25,321.23 152.32,321.23 151.40,321.23 150.47,321.23 149.54,321.23 148.61,321.23 147.69,321.23 146.76,321.23 145.83,321.23 144.91,321.23 143.98,321.23 143.05,321.23 142.13,321.23 141.20,321.23 140.27,321.23 139.35,321.23 138.42,321.23 137.49,321.23 136.57,321.23 135.64,321.23 134.71,321.23 133.79,321.23 132.86,321.23 131.93,321.23 131.01,321.23 130.08,321.23 129.15,321.23 128.23,321.23 127.30,321.23 126.37,321.23 125.45,321.23 124.52,321.23 123.59,321.23 122.67,321.23 121.74,321.23 120.81,321.23 119.89,321.23 118.96,321.23 118.03,321.23 117.11,321.23 116.18,321.23 115.25,321.23 114.33,321.23 113.40,321.23 112.47,321.23 111.55,321.23 110.62,321.23 109.69,321.23 108.77,321.23 107.84,321.23 106.91,321.23 105.99,321.23 105.06,321.23 104.13,321.23 103.21,321.23 102.28,321.23 101.35,321.23 100.42,321.23 99.50,321.23 98.57,321.23 97.64,321.23 96.72,321.23 95.79,321.23 94.86,321.23 93.94,321.23 93.01,321.23 92.08,321.23 91.16,321.23 90.23,321.23 89.30,321.23 88.38,321.23 87.45,321.23 86.52,321.23 85.60,321.23 84.67,321.23 83.74,321.23 82.82,321.23 81.89,321.23 80.96,321.23 80.04,321.23 79.11,321.23 78.18,321.23 77.26,321.23 76.33,321.23 75.40,321.23 74.48,321.23 73.55,321.23 72.62,321.23 71.70,321.23 70.77,321.23 69.84,321.23 68.92,321.23 67.99,321.23 67.06,321.23 66.14,321.23 65.21,321.23 64.28,321.23 "
       style="stroke-width:3;stroke:none;stroke-linecap:butt;fill:#44AA99;fill-opacity:0.55;stroke-dasharray:none"
       id="polygon5" />
    <polyline
       points="64.28,315.16 65.21,314.63 66.14,314.07 67.06,313.48 67.99,312.84 68.92,312.16 69.84,311.45 70.77,310.70 71.70,309.89 72.62,309.04 73.55,308.16 74.48,307.23 75.40,306.24 76.33,305.21 77.26,304.14 78.18,303.01 79.11,301.83 80.04,300.60 80.96,299.33 81.89,298.01 82.82,296.63 83.74,295.20 84.67,293.73 85.60,292.20 86.52,290.62 87.45,288.99 88.38,287.32 89.30,285.59 90.23,283.82 91.16,282.00 92.08,280.14 93.01,278.23 93.94,276.27 94.86,274.27 95.79,272.24 96.72,270.16 97.64,268.03 98.57,265.88 99.50,263.69 100.42,261.46 101.35,259.19 102.28,256.90 103.21,254.57 104.13,252.21 105.06,249.83 105.99,247.42 106.91,244.98 107.84,242.52 108.77,240.03 109.69,237.53 110.62,235.01 111.55,232.47 112.47,229.91 113.40,227.34 114.33,224.76 115.25,222.16 116.18,219.56 117.11,216.95 118.03,214.34 118.96,211.72 119.89,209.11 120.81,206.49 121.74,203.88 122.67,201.27 123.59,198.67 124.52,196.08 125.45,193.51 126.37,190.95 127.30,188.41 128.23,185.89 129.15,183.40 130.08,180.94 131.01,178.50 131.93,176.09 132.86,173.73 133.79,171.41 134.71,169.13 135.64,166.89 136.57,164.72 137.49,162.59 138.42,160.52 139.35,158.51 140.27,156.57 141.20,154.69 142.13,152.88 143.05,151.14 143.98,149.49 144.91,147.92 145.83,146.41 146.76,145.00 147.69,143.68 148.61,142.45 149.54,141.29 150.47,140.24 151.40,139.29 152.32,138.42 153.25,137.64 154.18,136.97 155.10,136.40 156.03,135.91 156.96,135.51 157.88,135.24 158.81,135.05 159.74,134.94 160.66,134.91 161.59,135.01 162.52,135.18 163.44,135.43 164.37,135.76 165.30,136.19 166.22,136.69 167.15,137.25 168.08,137.88 169.00,138.60 169.93,139.38 170.86,140.20 171.78,141.08 172.71,142.03 173.64,143.01 174.56,144.03 175.49,145.10 176.42,146.20 177.34,147.32 178.27,148.47 179.20,149.64 180.12,150.82 181.05,152.02 181.98,153.21 182.90,154.41 183.83,155.61 184.76,156.80 185.68,157.97 186.61,159.13 187.54,160.27 188.46,161.39 189.39,162.48 190.32,163.54 191.24,164.56 192.17,165.55 193.10,166.50 194.02,167.40 194.95,168.26 195.88,169.07 196.81,169.84 197.73,170.55 198.66,171.21 199.59,171.82 200.51,172.38 201.44,172.86 202.37,173.30 203.29,173.69 204.22,174.01 205.15,174.27 206.07,174.48 207.00,174.63 207.93,174.72 208.85,174.75 209.78,174.73 210.71,174.66 211.63,174.52 212.56,174.33 213.49,174.08 214.41,173.80 215.34,173.44 216.27,173.04 217.19,172.60 218.12,172.11 219.05,171.56 219.97,170.97 220.90,170.33 221.83,169.66 222.75,168.94 223.68,168.18 224.61,167.38 225.53,166.55 226.46,165.67 227.39,164.76 228.31,163.82 229.24,162.85 230.17,161.84 231.09,160.80 232.02,159.74 232.95,158.65 233.87,157.53 234.80,156.40 235.73,155.24 236.65,154.06 237.58,152.87 238.51,151.66 239.43,150.44 240.36,149.21 241.29,147.97 242.21,146.72 243.14,145.47 244.07,144.23 245.00,142.98 245.92,141.74 246.85,140.50 247.78,139.28 248.70,138.07 249.63,136.88 250.56,135.71 251.48,134.56 252.41,133.44 253.34,132.35 254.26,131.28 255.19,130.27 256.12,129.29 257.04,128.34 257.97,127.44 258.90,126.60 259.82,125.81 260.75,125.07 261.68,124.38 262.60,123.76 263.53,123.20 264.46,122.70 265.38,122.26 266.31,121.90 267.24,121.61 268.16,121.38 269.09,121.23 270.02,121.16 270.94,121.15 271.87,121.21 272.80,121.36 273.72,121.59 274.65,121.89 275.58,122.25 276.50,122.70 277.43,123.23 278.36,123.82 279.28,124.47 280.21,125.22 281.14,126.03 282.06,126.89 282.99,127.82 283.92,128.83 284.84,129.89 285.77,131.01 286.70,132.18 287.62,133.41 288.55,134.69 289.48,136.01 290.40,137.38 291.33,138.80 292.26,140.24 293.19,141.72 294.11,143.24 295.04,144.78 295.97,146.35 296.89,147.93 297.82,149.54 298.75,151.16 299.67,152.79 300.60,154.43 301.53,156.07 302.45,157.72 303.38,159.37 304.31,161.01 305.23,162.64 306.16,164.27 307.09,165.88 308.01,167.48 308.94,169.07 309.87,170.63 310.79,172.18 311.72,173.71 312.65,175.21 313.57,176.69 314.50,178.15 315.43,179.59 316.35,180.99 317.28,182.37 318.21,183.72 319.13,185.06 320.06,186.36 320.99,187.63 321.91,188.89 322.84,190.12 323.77,191.33 324.69,192.51 325.62,193.68 326.55,194.82 327.47,195.95 328.40,197.05 329.33,198.15 330.25,199.23 331.18,200.29 332.11,201.35 333.03,202.39 333.96,203.42 334.89,204.45 335.81,205.47 336.74,206.49 337.67,207.50 338.60,208.51 339.52,209.52 340.45,210.53 341.38,211.54 342.30,212.55 343.23,213.57 344.16,214.59 345.08,215.61 346.01,216.63 346.94,217.67 347.86,218.70 348.79,219.74 349.72,220.79 350.64,221.84 351.57,222.90 352.50,223.97 353.42,225.05 354.35,226.13 355.28,227.21 356.20,228.30 357.13,229.40 358.06,230.51 358.98,231.62 359.91,232.74 360.84,233.87 361.76,235.00 362.69,236.13 363.62,237.27 364.54,238.42 365.47,239.57 366.40,240.73 367.32,241.89 368.25,243.05 369.18,244.22 370.10,245.39 371.03,246.56 371.96,247.74 372.88,248.91 373.81,250.09 374.74,251.27 375.66,252.45 376.59,253.63 377.52,254.81 378.44,255.99 379.37,257.17 380.30,258.34 381.22,259.52 382.15,260.68 383.08,261.85 384.00,263.01 384.93,264.16 385.86,265.31 386.79,266.45 387.71,267.59 388.64,268.72 389.57,269.84 390.49,270.95 391.42,272.05 392.35,273.15 393.27,274.23 394.20,275.31 395.13,276.37 396.05,277.42 396.98,278.46 397.91,279.49 398.83,280.51 399.76,281.52 400.69,282.51 401.61,283.49 402.54,284.45 403.47,285.41 404.39,286.35 405.32,287.27 406.25,288.18 407.17,289.08 408.10,289.96 409.03,290.83 409.95,291.68 410.88,292.51 411.81,293.34 412.73,294.14 413.66,294.93 414.59,295.71 415.51,296.47 416.44,297.21 417.37,297.94 418.29,298.65 419.22,299.35 420.15,300.04 421.07,300.70 422.00,301.35 422.93,301.99 423.85,302.62 424.78,303.22 425.71,303.82 426.63,304.40 427.56,304.96 428.49,305.51 429.41,306.05 430.34,306.58 431.27,307.09 432.20,307.59 433.12,308.08 434.05,308.55 434.98,309.02 435.90,309.47 436.83,309.91 437.76,310.34 438.68,310.76 439.61,311.17 440.54,311.57 441.46,311.96 442.39,312.34 443.32,312.71 444.24,313.07 445.17,313.42 446.10,313.76 447.02,314.09 447.95,314.42 448.88,314.73 449.80,315.04 450.73,315.33 451.66,315.62 452.58,315.90 453.51,316.17 454.44,316.44 455.36,316.69 456.29,316.94 457.22,317.17 458.14,317.40 459.07,317.62 460.00,317.84 460.92,318.04 461.85,318.23 462.78,318.42 463.70,318.60 464.63,318.77 465.56,318.93 466.48,319.09 467.41,319.24 468.34,319.38 469.26,319.51 470.19,319.64 471.12,319.76 472.04,319.87 472.97,319.98 473.90,320.08 474.82,320.17 475.75,320.25 476.68,320.34 477.60,320.41 478.53,320.48 479.46,320.55 480.39,320.61 481.31,320.67 482.24,320.72 483.17,320.77 484.09,320.81 485.02,320.85 485.95,320.89 486.87,320.92 487.80,320.96 488.73,320.99 489.65,321.01 490.58,321.03 491.51,321.06 492.43,321.08 493.36,321.09 494.29,321.11 495.21,321.12 496.14,321.14 497.07,321.15 497.99,321.16 498.92,321.17 499.85,321.17 500.77,321.18 501.70,321.19 502.63,321.19 503.55,321.20 504.48,321.20 505.41,321.21 506.33,321.21 507.26,321.21 508.19,321.21 509.11,321.22 510.04,321.22 510.97,321.22 511.89,321.22 512.82,321.22 513.75,321.22 514.67,321.23 515.60,321.23 516.53,321.23 517.45,321.23 518.38,321.23 519.31,321.23 520.23,321.23 521.16,321.23 522.09,321.23 523.01,321.23 523.94,321.23 524.87,321.23 525.80,321.23 526.72,321.23 527.65,321.23 528.58,321.23 529.50,321.23 530.43,321.23 531.36,321.23 532.28,321.23 533.21,321.23 534.14,321.23 535.06,321.23 535.99,321.23 536.92,321.23 537.84,321.23 "
       style="stroke-width:3;stroke:#44AA99;stroke-linecap:butt;stroke-dasharray:none"
       id="polyline5" />
    <polygon
       points="64.28,308.96 65.21,307.75 66.14,306.46 67.06,305.09 67.99,303.60 68.92,302.01 69.84,300.32 70.77,298.53 71.70,296.63 72.62,294.60 73.55,292.46 74.48,290.21 75.40,287.85 76.33,285.33 77.26,282.71 78.18,279.98 79.11,277.13 80.04,274.12 80.96,271.00 81.89,267.77 82.82,264.43 83.74,260.95 84.67,257.34 85.60,253.64 86.52,249.83 87.45,245.90 88.38,241.86 89.30,237.72 90.23,233.50 91.16,229.18 92.08,224.76 93.01,220.27 93.94,215.70 94.86,211.07 95.79,206.35 96.72,201.58 97.64,196.77 98.57,191.90 99.50,186.99 100.42,182.05 101.35,177.07 102.28,172.08 103.21,167.07 104.13,162.05 105.06,157.03 105.99,152.01 106.91,147.00 107.84,142.01 108.77,137.05 109.69,132.10 110.62,127.19 111.55,122.33 112.47,117.52 113.40,112.75 114.33,108.04 115.25,103.41 116.18,98.84 117.11,94.34 118.03,89.92 118.96,85.61 119.89,81.39 120.81,77.26 121.74,73.22 122.67,69.32 123.59,65.53 124.52,61.86 125.45,58.29 126.37,54.88 127.30,51.62 128.23,48.48 129.15,45.48 130.08,42.63 131.01,39.97 131.93,37.45 132.86,35.07 133.79,32.86 134.71,30.86 135.64,29.02 136.57,27.34 137.49,25.82 138.42,24.54 139.35,23.42 140.27,22.47 141.20,21.69 142.13,21.13 143.05,20.76 143.98,20.55 144.91,20.52 145.83,20.69 146.76,21.05 147.69,21.57 148.61,22.25 149.54,23.11 150.47,24.17 151.40,25.37 152.32,26.71 153.25,28.20 154.18,29.87 155.10,31.66 156.03,33.57 156.96,35.60 157.88,37.77 158.81,40.04 159.74,42.40 160.66,44.84 161.59,47.37 162.52,49.98 163.44,52.64 164.37,55.35 165.30,58.11 166.22,60.90 167.15,63.72 168.08,66.55 169.00,69.38 169.93,72.22 170.86,75.04 171.78,77.84 172.71,80.63 173.64,83.37 174.56,86.07 175.49,88.73 176.42,91.35 177.34,93.90 178.27,96.39 179.20,98.83 180.12,101.21 181.05,103.51 181.98,105.74 182.90,107.91 183.83,110.01 184.76,112.04 185.68,113.99 186.61,115.88 187.54,117.71 188.46,119.48 189.39,121.18 190.32,122.83 191.24,124.43 192.17,125.98 193.10,127.47 194.02,128.92 194.95,130.33 195.88,131.72 196.81,133.06 197.73,134.37 198.66,135.66 199.59,136.93 200.51,138.17 201.44,139.40 202.37,140.61 203.29,141.81 204.22,142.99 205.15,144.17 206.07,145.33 207.00,146.49 207.93,147.63 208.85,148.77 209.78,149.90 210.71,151.02 211.63,152.13 212.56,153.22 213.49,154.30 214.41,155.37 215.34,156.42 216.27,157.45 217.19,158.46 218.12,159.45 219.05,160.42 219.97,161.35 220.90,162.25 221.83,163.12 222.75,163.96 223.68,164.75 224.61,165.50 225.53,166.22 226.46,166.89 227.39,167.51 228.31,168.07 229.24,168.58 230.17,169.05 231.09,169.46 232.02,169.80 232.95,170.08 233.87,170.32 234.80,170.50 235.73,170.60 236.65,170.64 237.58,170.64 238.51,170.58 239.43,170.45 240.36,170.27 241.29,170.05 242.21,169.78 243.14,169.45 244.07,169.09 245.00,168.69 245.92,168.26 246.85,167.80 247.78,167.32 248.70,166.83 249.63,166.33 250.56,165.83 251.48,165.34 252.41,164.87 253.34,164.41 254.26,163.98 255.19,163.60 256.12,163.27 257.04,162.98 257.97,162.75 258.90,162.60 259.82,162.54 260.75,162.54 261.68,162.63 262.60,162.83 263.53,163.14 264.46,163.54 265.38,164.05 266.31,164.67 267.24,165.43 268.16,166.31 269.09,167.29 270.02,168.38 270.94,169.63 271.87,170.99 272.80,172.45 273.72,174.02 274.65,175.74 275.58,177.56 276.50,179.47 277.43,181.47 278.36,183.58 279.28,185.79 280.21,188.06 281.14,190.40 282.06,192.82 282.99,195.30 283.92,197.83 284.84,200.40 285.77,203.00 286.70,205.63 287.62,208.28 288.55,210.94 289.48,213.60 290.40,216.25 291.33,218.89 292.26,221.51 293.19,224.11 294.11,226.66 295.04,229.18 295.97,231.65 296.89,234.07 297.82,236.43 298.75,238.72 299.67,240.95 300.60,243.11 301.53,245.20 302.45,247.20 303.38,249.13 304.31,250.99 305.23,252.76 306.16,254.43 307.09,256.03 308.01,257.55 308.94,259.00 309.87,260.34 310.79,261.61 311.72,262.81 312.65,263.93 313.57,264.97 314.50,265.93 315.43,266.84 316.35,267.68 317.28,268.45 318.21,269.16 319.13,269.82 320.06,270.44 320.99,271.01 321.91,271.53 322.84,272.01 323.77,272.47 324.69,272.90 325.62,273.30 326.55,273.69 327.47,274.06 328.40,274.42 329.33,274.78 330.25,275.13 331.18,275.48 332.11,275.84 333.03,276.21 333.96,276.60 334.89,277.00 335.81,277.41 336.74,277.85 337.67,278.31 338.60,278.79 339.52,279.30 340.45,279.84 341.38,280.41 342.30,281.01 343.23,281.64 344.16,282.29 345.08,282.99 346.01,283.71 346.94,284.45 347.86,285.22 348.79,286.03 349.72,286.86 350.64,287.70 351.57,288.57 352.50,289.47 353.42,290.38 354.35,291.31 355.28,292.25 356.20,293.20 357.13,294.16 358.06,295.12 358.98,296.09 359.91,297.06 360.84,298.03 361.76,298.99 362.69,299.95 363.62,300.90 364.54,301.83 365.47,302.75 366.40,303.66 367.32,304.56 368.25,305.42 369.18,306.27 370.10,307.10 371.03,307.91 371.96,308.69 372.88,309.44 373.81,310.17 374.74,310.88 375.66,311.55 376.59,312.19 377.52,312.81 378.44,313.40 379.37,313.96 380.30,314.49 381.22,315.00 382.15,315.48 383.08,315.93 384.00,316.35 384.93,316.75 385.86,317.12 386.79,317.47 387.71,317.79 388.64,318.10 389.57,318.38 390.49,318.64 391.42,318.88 392.35,319.11 393.27,319.31 394.20,319.50 395.13,319.68 396.05,319.83 396.98,319.98 397.91,320.11 398.83,320.23 399.76,320.34 400.69,320.44 401.61,320.53 402.54,320.61 403.47,320.68 404.39,320.74 405.32,320.80 406.25,320.86 407.17,320.90 408.10,320.94 409.03,320.98 409.95,321.01 410.88,321.04 411.81,321.06 412.73,321.09 413.66,321.11 414.59,321.12 415.51,321.14 416.44,321.15 417.37,321.16 418.29,321.17 419.22,321.18 420.15,321.19 421.07,321.19 422.00,321.20 422.93,321.20 423.85,321.21 424.78,321.21 425.71,321.22 426.63,321.22 427.56,321.22 428.49,321.22 429.41,321.22 430.34,321.22 431.27,321.23 432.20,321.23 433.12,321.23 434.05,321.23 434.98,321.23 435.90,321.23 436.83,321.23 437.76,321.23 438.68,321.23 439.61,321.23 440.54,321.23 441.46,321.23 442.39,321.23 443.32,321.23 444.24,321.23 445.17,321.23 446.10,321.23 447.02,321.23 447.95,321.23 448.88,321.23 449.80,321.23 450.73,321.23 451.66,321.23 452.58,321.23 453.51,321.23 454.44,321.23 455.36,321.23 456.29,321.23 457.22,321.23 458.14,321.23 459.07,321.23 460.00,321.23 460.92,321.23 461.85,321.23 462.78,321.23 463.70,321.23 464.63,321.23 465.56,321.23 466.48,321.23 467.41,321.23 468.34,321.23 469.26,321.23 470.19,321.23 471.12,321.23 472.04,321.23 472.97,321.23 473.90,321.23 474.82,321.23 475.75,321.23 476.68,321.23 477.60,321.23 478.53,321.23 479.46,321.23 480.39,321.23 481.31,321.23 482.24,321.23 483.17,321.23 484.09,321.23 485.02,321.23 485.95,321.23 486.87,321.23 487.80,321.23 488.73,321.23 489.65,321.23 490.58,321.23 491.51,321.23 492.43,321.23 493.36,321.23 494.29,321.23 495.21,321.23 496.14,321.23 497.07,321.23 497.99,321.23 498.92,321.23 499.85,321.23 500.77,321.23 501.70,321.23 502.63,321.23 503.55,321.23 504.48,321.23 505.41,321.23 506.33,321.23 507.26,321.23 508.19,321.23 509.11,321.23 510.04,321.23 510.97,321.23 511.89,321.23 512.82,321.23 513.75,321.23 514.67,321.23 515.60,321.23 516.53,321.23 517.45,321.23 518.38,321.23 519.31,321.23 520.23,321.23 521.16,321.23 522.09,321.23 523.01,321.23 523.94,321.23 524.87,321.23 525.80,321.23 526.72,321.23 527.65,321.23 528.58,321.23 529.50,321.23 530.43,321.23 531.36,321.23 532.28,321.23 533.21,321.23 534.14,321.23 535.06,321.23 535.99,321.23 536.92,321.23 537.84,321.23 537.84,321.23 536.92,321.23 535.99,321.23 535.06,321.23 534.14,321.23 533.21,321.23 532.28,321.23 531.36,321.23 530.43,321.23 529.50,321.23 528.58,321.23 527.65,321.23 526.72,321.23 525.80,321.23 524.87,321.23 523.94,321.23 523.01,321.23 522.09,321.23 521.16,321.23 520.23,321.23 519.31,321.23 518.38,321.23 517.45,321.23 516.53,321.23 515.60,321.23 514.67,321.23 513.75,321.23 512.82,321.23 511.89,321.23 510.97,321.23 510.04,321.23 509.11,321.23 508.19,321.23 507.26,321.23 506.33,321.23 505.41,321.23 504.48,321.23 503.55,321.23 502.63,321.23 501.70,321.23 500.77,321.23 499.85,321.23 498.92,321.23 497.99,321.23 497.07,321.23 496.14,321.23 495.21,321.23 494.29,321.23 493.36,321.23 492.43,321.23 491.51,321.23 490.58,321.23 489.65,321.23 488.73,321.23 487.80,321.23 486.87,321.23 485.95,321.23 485.02,321.23 484.09,321.23 483.17,321.23 482.24,321.23 481.31,321.23 480.39,321.23 479.46,321.23 478.53,321.23 477.60,321.23 476.68,321.23 475.75,321.23 474.82,321.23 473.90,321.23 472.97,321.23 472.04,321.23 471.12,321.23 470.19,321.23 469.26,321.23 468.34,321.23 467.41,321.23 466.48,321.23 465.56,321.23 464.63,321.23 463.70,321.23 462.78,321.23 461.85,321.23 460.92,321.23 460.00,321.23 459.07,321.23 458.14,321.23 457.22,321.23 456.29,321.23 455.36,321.23 454.44,321.23 453.51,321.23 452.58,321.23 451.66,321.23 450.73,321.23 449.80,321.23 448.88,321.23 447.95,321.23 447.02,321.23 446.10,321.23 445.17,321.23 444.24,321.23 443.32,321.23 442.39,321.23 441.46,321.23 440.54,321.23 439.61,321.23 438.68,321.23 437.76,321.23 436.83,321.23 435.90,321.23 434.98,321.23 434.05,321.23 433.12,321.23 432.20,321.23 431.27,321.23 430.34,321.23 429.41,321.23 428.49,321.23 427.56,321.23 426.63,321.23 425.71,321.23 424.78,321.23 423.85,321.23 422.93,321.23 422.00,321.23 421.07,321.23 420.15,321.23 419.22,321.23 418.29,321.23 417.37,321.23 416.44,321.23 415.51,321.23 414.59,321.23 413.66,321.23 412.73,321.23 411.81,321.23 410.88,321.23 409.95,321.23 409.03,321.23 408.10,321.23 407.17,321.23 406.25,321.23 405.32,321.23 404.39,321.23 403.47,321.23 402.54,321.23 401.61,321.23 400.69,321.23 399.76,321.23 398.83,321.23 397.91,321.23 396.98,321.23 396.05,321.23 395.13,321.23 394.20,321.23 393.27,321.23 392.35,321.23 391.42,321.23 390.49,321.23 389.57,321.23 388.64,321.23 387.71,321.23 386.79,321.23 385.86,321.23 384.93,321.23 384.00,321.23 383.08,321.23 382.15,321.23 381.22,321.23 380.30,321.23 379.37,321.23 378.44,321.23 377.52,321.23 376.59,321.23 375.66,321.23 374.74,321.23 373.81,321.23 372.88,321.23 371.96,321.23 371.03,321.23 370.10,321.23 369.18,321.23 368.25,321.23 367.32,321.23 366.40,321.23 365.47,321.23 364.54,321.23 363.62,321.23 362.69,321.23 361.76,321.23 360.84,321.23 359.91,321.23 358.98,321.23 358.06,321.23 357.13,321.23 356.20,321.23 355.28,321.23 354.35,321.23 353.42,321.23 352.50,321.23 351.57,321.23 350.64,321.23 349.72,321.23 348.79,321.23 347.86,321.23 346.94,321.23 346.01,321.23 345.08,321.23 344.16,321.23 343.23,321.23 342.30,321.23 341.38,321.23 340.45,321.23 339.52,321.23 338.60,321.23 337.67,321.23 336.74,321.23 335.81,321.23 334.89,321.23 333.96,321.23 333.03,321.23 332.11,321.23 331.18,321.23 330.25,321.23 329.33,321.23 328.40,321.23 327.47,321.23 326.55,321.23 325.62,321.23 324.69,321.23 323.77,321.23 322.84,321.23 321.91,321.23 320.99,321.23 320.06,321.23 319.13,321.23 318.21,321.23 317.28,321.23 316.35,321.23 315.43,321.23 314.50,321.23 313.57,321.23 312.65,321.23 311.72,321.23 310.79,321.23 309.87,321.23 308.94,321.23 308.01,321.23 307.09,321.23 306.16,321.23 305.23,321.23 304.31,321.23 303.38,321.23 302.45,321.23 301.53,321.23 300.60,321.23 299.67,321.23 298.75,321.23 297.82,321.23 296.89,321.23 295.97,321.23 295.04,321.23 294.11,321.23 293.19,321.23 292.26,321.23 291.33,321.23 290.40,321.23 289.48,321.23 288.55,321.23 287.62,321.23 286.70,321.23 285.77,321.23 284.84,321.23 283.92,321.23 282.99,321.23 282.06,321.23 281.14,321.23 280.21,321.23 279.28,321.23 278.36,321.23 277.43,321.23 276.50,321.23 275.58,321.23 274.65,321.23 273.72,321.23 272.80,321.23 271.87,321.23 270.94,321.23 270.02,321.23 269.09,321.23 268.16,321.23 267.24,321.23 266.31,321.23 265.38,321.23 264.46,321.23 263.53,321.23 262.60,321.23 261.68,321.23 260.75,321.23 259.82,321.23 258.90,321.23 257.97,321.23 257.04,321.23 256.12,321.23 255.19,321.23 254.26,321.23 253.34,321.23 252.41,321.23 251.48,321.23 250.56,321.23 249.63,321.23 248.70,321.23 247.78,321.23 246.85,321.23 245.92,321.23 245.00,321.23 244.07,321.23 243.14,321.23 242.21,321.23 241.29,321.23 240.36,321.23 239.43,321.23 238.51,321.23 237.58,321.23 236.65,321.23 235.73,321.23 234.80,321.23 233.87,321.23 232.95,321.23 232.02,321.23 231.09,321.23 230.17,321.23 229.24,321.23 228.31,321.23 227.39,321.23 226.46,321.23 225.53,321.23 224.61,321.23 223.68,321.23 222.75,321.23 221.83,321.23 220.90,321.23 219.97,321.23 219.05,321.23 218.12,321.23 217.19,321.23 216.27,321.23 215.34,321.23 214.41,321.23 213.49,321.23 212.56,321.23 211.63,321.23 210.71,321.23 209.78,321.23 208.85,321.23 207.93,321.23 207.00,321.23 206.07,321.23 205.15,321.23 204.22,321.23 203.29,321.23 202.37,321.23 201.44,321.23 200.51,321.23 199.59,321.23 198.66,321.23 197.73,321.23 196.81,321.23 195.88,321.23 194.95,321.23 194.02,321.23 193.10,321.23 192.17,321.23 191.24,321.23 190.32,321.23 189.39,321.23 188.46,321.23 187.54,321.23 186.61,321.23 185.68,321.23 184.76,321.23 183.83,321.23 182.90,321.23 181.98,321.23 181.05,321.23 180.12,321.23 179.20,321.23 178.27,321.23 177.34,321.23 176.42,321.23 175.49,321.23 174.56,321.23 173.64,321.23 172.71,321.23 171.78,321.23 170.86,321.23 169.93,321.23 169.00,321.23 168.08,321.23 167.15,321.23 166.22,321.23 165.30,321.23 164.37,321.23 163.44,321.23 162.52,321.23 161.59,321.23 160.66,321.23 159.74,321.23 158.81,321.23 157.88,321.23 156.96,321.23 156.03,321.23 155.10,321.23 154.18,321.23 153.25,321.23 152.32,321.23 151.40,321.23 150.47,321.23 149.54,321.23 148.61,321.23 147.69,321.23 146.76,321.23 145.83,321.23 144.91,321.23 143.98,321.23 143.05,321.23 142.13,321.23 141.20,321.23 140.27,321.23 139.35,321.23 138.42,321.23 137.49,321.23 136.57,321.23 135.64,321.23 134.71,321.23 133.79,321.23 132.86,321.23 131.93,321.23 131.01,321.23 130.08,321.23 129.15,321.23 128.23,321.23 127.30,321.23 126.37,321.23 125.45,321.23 124.52,321.23 123.59,321.23 122.67,321.23 121.74,321.23 120.81,321.23 119.89,321.23 118.96,321.23 118.03,321.23 117.11,321.23 116.18,321.23 115.25,321.23 114.33,321.23 113.40,321.23 112.47,321.23 111.55,321.23 110.62,321.23 109.69,321.23 108.77,321.23 107.84,321.23 106.91,321.23 105.99,321.23 105.06,321.23 104.13,321.23 103.21,321.23 102.28,321.23 101.35,321.23 100.42,321.23 99.50,321.23 98.57,321.23 97.64,321.23 96.72,321.23 95.79,321.23 94.86,321.23 93.94,321.23 93.01,321.23 92.08,321.23 91.16,321.23 90.23,321.23 89.30,321.23 88.38,321.23 87.45,321.23 86.52,321.23 85.60,321.23 84.67,321.23 83.74,321.23 82.82,321.23 81.89,321.23 80.96,321.23 80.04,321.23 79.11,321.23 78.18,321.23 77.26,321.23 76.33,321.23 75.40,321.23 74.48,321.23 73.55,321.23 72.62,321.23 71.70,321.23 70.77,321.23 69.84,321.23 68.92,321.23 67.99,321.23 67.06,321.23 66.14,321.23 65.21,321.23 64.28,321.23 "
       style="stroke-width:3;stroke:none;stroke-linecap:butt;fill:#DDCC77;fill-opacity:0.55;stroke-dasharray:none"
       id="polygon6" />
    <polyline
       points="64.28,308.96 65.21,307.75 66.14,306.46 67.06,305.09 67.99,303.60 68.92,302.01 69.84,300.32 70.77,298.53 71.70,296.63 72.62,294.60 73.55,292.46 74.48,290.21 75.40,287.85 76.33,285.33 77.26,282.71 78.18,279.98 79.11,277.13 80.04,274.12 80.96,271.00 81.89,267.77 82.82,264.43 83.74,260.95 84.67,257.34 85.60,253.64 86.52,249.83 87.45,245.90 88.38,241.86 89.30,237.72 90.23,233.50 91.16,229.18 92.08,224.76 93.01,220.27 93.94,215.70 94.86,211.07 95.79,206.35 96.72,201.58 97.64,196.77 98.57,191.90 99.50,186.99 100.42,182.05 101.35,177.07 102.28,172.08 103.21,167.07 104.13,162.05 105.06,157.03 105.99,152.01 106.91,147.00 107.84,142.01 108.77,137.05 109.69,132.10 110.62,127.19 111.55,122.33 112.47,117.52 113.40,112.75 114.33,108.04 115.25,103.41 116.18,98.84 117.11,94.34 118.03,89.92 118.96,85.61 119.89,81.39 120.81,77.26 121.74,73.22 122.67,69.32 123.59,65.53 124.52,61.86 125.45,58.29 126.37,54.88 127.30,51.62 128.23,48.48 129.15,45.48 130.08,42.63 131.01,39.97 131.93,37.45 132.86,35.07 133.79,32.86 134.71,30.86 135.64,29.02 136.57,27.34 137.49,25.82 138.42,24.54 139.35,23.42 140.27,22.47 141.20,21.69 142.13,21.13 143.05,20.76 143.98,20.55 144.91,20.52 145.83,20.69 146.76,21.05 147.69,21.57 148.61,22.25 149.54,23.11 150.47,24.17 151.40,25.37 152.32,26.71 153.25,28.20 154.18,29.87 155.10,31.66 156.03,33.57 156.96,35.60 157.88,37.77 158.81,40.04 159.74,42.40 160.66,44.84 161.59,47.37 162.52,49.98 163.44,52.64 164.37,55.35 165.30,58.11 166.22,60.90 167.15,63.72 168.08,66.55 169.00,69.38 169.93,72.22 170.86,75.04 171.78,77.84 172.71,80.63 173.64,83.37 174.56,86.07 175.49,88.73 176.42,91.35 177.34,93.90 178.27,96.39 179.20,98.83 180.12,101.21 181.05,103.51 181.98,105.74 182.90,107.91 183.83,110.01 184.76,112.04 185.68,113.99 186.61,115.88 187.54,117.71 188.46,119.48 189.39,121.18 190.32,122.83 191.24,124.43 192.17,125.98 193.10,127.47 194.02,128.92 194.95,130.33 195.88,131.72 196.81,133.06 197.73,134.37 198.66,135.66 199.59,136.93 200.51,138.17 201.44,139.40 202.37,140.61 203.29,141.81 204.22,142.99 205.15,144.17 206.07,145.33 207.00,146.49 207.93,147.63 208.85,148.77 209.78,149.90 210.71,151.02 211.63,152.13 212.56,153.22 213.49,154.30 214.41,155.37 215.34,156.42 216.27,157.45 217.19,158.46 218.12,159.45 219.05,160.42 219.97,161.35 220.90,162.25 221.83,163.12 222.75,163.96 223.68,164.75 224.61,165.50 225.53,166.22 226.46,166.89 227.39,167.51 228.31,168.07 229.24,168.58 230.17,169.05 231.09,169.46 232.02,169.80 232.95,170.08 233.87,170.32 234.80,170.50 235.73,170.60 236.65,170.64 237.58,170.64 238.51,170.58 239.43,170.45 240.36,170.27 241.29,170.05 242.21,169.78 243.14,169.45 244.07,169.09 245.00,168.69 245.92,168.26 246.85,167.80 247.78,167.32 248.70,166.83 249.63,166.33 250.56,165.83 251.48,165.34 252.41,164.87 253.34,164.41 254.26,163.98 255.19,163.60 256.12,163.27 257.04,162.98 257.97,162.75 258.90,162.60 259.82,162.54 260.75,162.54 261.68,162.63 262.60,162.83 263.53,163.14 264.46,163.54 265.38,164.05 266.31,164.67 267.24,165.43 268.16,166.31 269.09,167.29 270.02,168.38 270.94,169.63 271.87,170.99 272.80,172.45 273.72,174.02 274.65,175.74 275.58,177.56 276.50,179.47 277.43,181.47 278.36,183.58 279.28,185.79 280.21,188.06 281.14,190.40 282.06,192.82 282.99,195.30 283.92,197.83 284.84,200.40 285.77,203.00 286.70,205.63 287.62,208.28 288.55,210.94 289.48,213.60 290.40,216.25 291.33,218.89 292.26,221.51 293.19,224.11 294.11,226.66 295.04,229.18 295.97,231.65 296.89,234.07 297.82,236.43 298.75,238.72 299.67,240.95 300.60,243.11 301.53,245.20 302.45,247.20 303.38,249.13 304.31,250.99 305.23,252.76 306.16,254.43 307.09,256.03 308.01,257.55 308.94,259.00 309.87,260.34 310.79,261.61 311.72,262.81 312.65,263.93 313.57,264.97 314.50,265.93 315.43,266.84 316.35,267.68 317.28,268.45 318.21,269.16 319.13,269.82 320.06,270.44 320.99,271.01 321.91,271.53 322.84,272.01 323.77,272.47 324.69,272.90 325.62,273.30 326.55,273.69 327.47,274.06 328.40,274.42 329.33,274.78 330.25,275.13 331.18,275.48 332.11,275.84 333.03,276.21 333.96,276.60 334.89,277.00 335.81,277.41 336.74,277.85 337.67,278.31 338.60,278.79 339.52,279.30 340.45,279.84 341.38,280.41 342.30,281.01 343.23,281.64 344.16,282.29 345.08,282.99 346.01,283.71 346.94,284.45 347.86,285.22 348.79,286.03 349.72,286.86 350.64,287.70 351.57,288.57 352.50,289.47 353.42,290.38 354.35,291.31 355.28,292.25 356.20,293.20 357.13,294.16 358.06,295.12 358.98,296.09 359.91,297.06 360.84,298.03 361.76,298.99 362.69,299.95 363.62,300.90 364.54,301.83 365.47,302.75 366.40,303.66 367.32,304.56 368.25,305.42 369.18,306.27 370.10,307.10 371.03,307.91 371.96,308.69 372.88,309.44 373.81,310.17 374.74,310.88 375.66,311.55 376.59,312.19 377.52,312.81 378.44,313.40 379.37,313.96 380.30,314.49 381.22,315.00 382.15,315.48 383.08,315.93 384.00,316.35 384.93,316.75 385.86,317.12 386.79,317.47 387.71,317.79 388.64,318.10 389.57,318.38 390.49,318.64 391.42,318.88 392.35,319.11 393.27,319.31 394.20,319.50 395.13,319.68 396.05,319.83 396.98,319.98 397.91,320.11 398.83,320.23 399.76,320.34 400.69,320.44 401.61,320.53 402.54,320.61 403.47,320.68 404.39,320.74 405.32,320.80 406.25,320.86 407.17,320.90 408.10,320.94 409.03,320.98 409.95,321.01 410.88,321.04 411.81,321.06 412.73,321.09 413.66,321.11 414.59,321.12 415.51,321.14 416.44,321.15 417.37,321.16 418.29,321.17 419.22,321.18 420.15,321.19 421.07,321.19 422.00,321.20 422.93,321.20 423.85,321.21 424.78,321.21 425.71,321.22 426.63,321.22 427.56,321.22 428.49,321.22 429.41,321.22 430.34,321.22 431.27,321.23 432.20,321.23 433.12,321.23 434.05,321.23 434.98,321.23 435.90,321.23 436.83,321.23 437.76,321.23 438.68,321.23 439.61,321.23 440.54,321.23 441.46,321.23 442.39,321.23 443.32,321.23 444.24,321.23 445.17,321.23 446.10,321.23 447.02,321.23 447.95,321.23 448.88,321.23 449.80,321.23 450.73,321.23 451.66,321.23 452.58,321.23 453.51,321.23 454.44,321.23 455.36,321.23 456.29,321.23 457.22,321.23 458.14,321.23 459.07,321.23 460.00,321.23 460.92,321.23 461.85,321.23 462.78,321.23 463.70,321.23 464.63,321.23 465.56,321.23 466.48,321.23 467.41,321.23 468.34,321.23 469.26,321.23 470.19,321.23 471.12,321.23 472.04,321.23 472.97,321.23 473.90,321.23 474.82,321.23 475.75,321.23 476.68,321.23 477.60,321.23 478.53,321.23 479.46,321.23 480.39,321.23 481.31,321.23 482.24,321.23 483.17,321.23 484.09,321.23 485.02,321.23 485.95,321.23 486.87,321.23 487.80,321.23 488.73,321.23 489.65,321.23 490.58,321.23 491.51,321.23 492.43,321.23 493.36,321.23 494.29,321.23 495.21,321.23 496.14,321.23 497.07,321.23 497.99,321.23 498.92,321.23 499.85,321.23 500.77,321.23 501.70,321.23 502.63,321.23 503.55,321.23 504.48,321.23 505.41,321.23 506.33,321.23 507.26,321.23 508.19,321.23 509.11,321.23 510.04,321.23 510.97,321.23 511.89,321.23 512.82,321.23 513.75,321.23 514.67,321.23 515.60,321.23 516.53,321.23 517.45,321.23 518.38,321.23 519.31,321.23 520.23,321.23 521.16,321.23 522.09,321.23 523.01,321.23 523.94,321.23 524.87,321.23 525.80,321.23 526.72,321.23 527.65,321.23 528.58,321.23 529.50,321.23 530.43,321.23 531.36,321.23 532.28,321.23 533.21,321.23 534.14,321.23 535.06,321.23 535.99,321.23 536.92,321.23 537.84,321.23 "
       style="stroke-width:3;stroke:#DDCC77;stroke-linecap:butt;stroke-dasharray:none"
       id="polyline6" />
    <polygon
       points="64.28,211.75 65.21,208.20 66.14,204.61 67.06,200.97 67.99,197.30 68.92,193.60 69.84,189.86 70.77,186.11 71.70,182.34 72.62,178.54 73.55,174.74 74.48,170.92 75.40,167.10 76.33,163.28 77.26,159.47 78.18,155.67 79.11,151.87 80.04,148.10 80.96,144.35 81.89,140.62 82.82,136.94 83.74,133.28 84.67,129.66 85.60,126.10 86.52,122.58 87.45,119.12 88.38,115.73 89.30,112.38 90.23,109.13 91.16,105.94 92.08,102.80 93.01,99.79 93.94,96.85 94.86,93.97 95.79,91.23 96.72,88.56 97.64,85.99 98.57,83.55 99.50,81.18 100.42,78.94 101.35,76.83 102.28,74.79 103.21,72.91 104.13,71.14 105.06,69.46 105.99,67.96 106.91,66.56 107.84,65.25 108.77,64.13 109.69,63.11 110.62,62.20 111.55,61.47 112.47,60.82 113.40,60.32 114.33,59.97 115.25,59.71 116.18,59.60 117.11,59.63 118.03,59.75 118.96,60.04 119.89,60.44 120.81,60.92 121.74,61.59 122.67,62.34 123.59,63.19 124.52,64.21 125.45,65.30 126.37,66.50 127.30,67.83 128.23,69.24 129.15,70.76 130.08,72.39 131.01,74.09 131.93,75.90 132.86,77.80 133.79,79.76 134.71,81.83 135.64,83.97 136.57,86.16 137.49,88.46 138.42,90.80 139.35,93.20 140.27,95.68 141.20,98.20 142.13,100.77 143.05,103.40 143.98,106.06 144.91,108.77 145.83,111.52 146.76,114.29 147.69,117.10 148.61,119.93 149.54,122.77 150.47,125.65 151.40,128.53 152.32,131.42 153.25,134.33 154.18,137.24 155.10,140.15 156.03,143.06 156.96,145.96 157.88,148.86 158.81,151.74 159.74,154.61 160.66,157.47 161.59,160.30 162.52,163.12 163.44,165.91 164.37,168.68 165.30,171.42 166.22,174.12 167.15,176.80 168.08,179.45 169.00,182.05 169.93,184.62 170.86,187.15 171.78,189.63 172.71,192.08 173.64,194.48 174.56,196.84 175.49,199.16 176.42,201.42 177.34,203.63 178.27,205.82 179.20,207.92 180.12,210.00 181.05,212.03 181.98,213.99 182.90,215.91 183.83,217.79 184.76,219.60 185.68,221.37 186.61,223.09 187.54,224.75 188.46,226.37 189.39,227.94 190.32,229.45 191.24,230.93 192.17,232.33 193.10,233.70 194.02,235.04 194.95,236.30 195.88,237.53 196.81,238.72 197.73,239.84 198.66,240.94 199.59,241.99 200.51,242.99 201.44,243.97 202.37,244.89 203.29,245.77 204.22,246.63 205.15,247.44 206.07,248.21 207.00,248.96 207.93,249.65 208.85,250.33 209.78,250.97 210.71,251.57 211.63,252.15 212.56,252.71 213.49,253.22 214.41,253.72 215.34,254.19 216.27,254.63 217.19,255.06 218.12,255.45 219.05,255.82 219.97,256.18 220.90,256.51 221.83,256.82 222.75,257.12 223.68,257.39 224.61,257.65 225.53,257.89 226.46,258.12 227.39,258.33 228.31,258.53 229.24,258.71 230.17,258.88 231.09,259.03 232.02,259.17 232.95,259.30 233.87,259.42 234.80,259.53 235.73,259.63 236.65,259.71 237.58,259.79 238.51,259.86 239.43,259.91 240.36,259.96 241.29,260.00 242.21,260.03 243.14,260.05 244.07,260.07 245.00,260.07 245.92,260.07 246.85,260.06 247.78,260.05 248.70,260.03 249.63,259.99 250.56,259.96 251.48,259.92 252.41,259.87 253.34,259.81 254.26,259.75 255.19,259.68 256.12,259.61 257.04,259.53 257.97,259.45 258.90,259.36 259.82,259.26 260.75,259.17 261.68,259.06 262.60,258.96 263.53,258.84 264.46,258.73 265.38,258.61 266.31,258.48 267.24,258.36 268.16,258.23 269.09,258.09 270.02,257.95 270.94,257.81 271.87,257.67 272.80,257.52 273.72,257.37 274.65,257.22 275.58,257.07 276.50,256.91 277.43,256.75 278.36,256.59 279.28,256.43 280.21,256.26 281.14,256.10 282.06,255.93 282.99,255.76 283.92,255.58 284.84,255.41 285.77,255.23 286.70,255.05 287.62,254.87 288.55,254.69 289.48,254.51 290.40,254.32 291.33,254.13 292.26,253.94 293.19,253.75 294.11,253.55 295.04,253.36 295.97,253.16 296.89,252.96 297.82,252.76 298.75,252.55 299.67,252.34 300.60,252.13 301.53,251.92 302.45,251.71 303.38,251.49 304.31,251.28 305.23,251.06 306.16,250.83 307.09,250.61 308.01,250.38 308.94,250.16 309.87,249.93 310.79,249.70 311.72,249.47 312.65,249.24 313.57,249.00 314.50,248.77 315.43,248.54 316.35,248.31 317.28,248.08 318.21,247.85 319.13,247.62 320.06,247.39 320.99,247.17 321.91,246.95 322.84,246.73 323.77,246.52 324.69,246.31 325.62,246.11 326.55,245.91 327.47,245.72 328.40,245.54 329.33,245.36 330.25,245.19 331.18,245.03 332.11,244.88 333.03,244.74 333.96,244.61 334.89,244.49 335.81,244.38 336.74,244.29 337.67,244.21 338.60,244.14 339.52,244.09 340.45,244.05 341.38,244.03 342.30,244.03 343.23,244.04 344.16,244.07 345.08,244.11 346.01,244.18 346.94,244.26 347.86,244.36 348.79,244.49 349.72,244.63 350.64,244.78 351.57,244.97 352.50,245.17 353.42,245.38 354.35,245.63 355.28,245.89 356.20,246.17 357.13,246.47 358.06,246.79 358.98,247.13 359.91,247.50 360.84,247.88 361.76,248.28 362.69,248.70 363.62,249.14 364.54,249.60 365.47,250.07 366.40,250.56 367.32,251.08 368.25,251.60 369.18,252.14 370.10,252.71 371.03,253.28 371.96,253.86 372.88,254.46 373.81,255.07 374.74,255.70 375.66,256.33 376.59,256.98 377.52,257.63 378.44,258.30 379.37,258.97 380.30,259.65 381.22,260.33 382.15,261.02 383.08,261.72 384.00,262.42 384.93,263.12 385.86,263.82 386.79,264.53 387.71,265.23 388.64,265.94 389.57,266.64 390.49,267.35 391.42,268.05 392.35,268.74 393.27,269.44 394.20,270.12 395.13,270.81 396.05,271.48 396.98,272.16 397.91,272.82 398.83,273.47 399.76,274.12 400.69,274.76 401.61,275.39 402.54,276.01 403.47,276.62 404.39,277.22 405.32,277.82 406.25,278.39 407.17,278.96 408.10,279.52 409.03,280.06 409.95,280.59 410.88,281.12 411.81,281.62 412.73,282.12 413.66,282.61 414.59,283.08 415.51,283.54 416.44,283.98 417.37,284.42 418.29,284.84 419.22,285.25 420.15,285.65 421.07,286.04 422.00,286.41 422.93,286.77 423.85,287.13 424.78,287.46 425.71,287.79 426.63,288.11 427.56,288.42 428.49,288.72 429.41,289.00 430.34,289.28 431.27,289.55 432.20,289.80 433.12,290.05 434.05,290.29 434.98,290.52 435.90,290.75 436.83,290.96 437.76,291.17 438.68,291.37 439.61,291.56 440.54,291.75 441.46,291.93 442.39,292.10 443.32,292.27 444.24,292.43 445.17,292.59 446.10,292.74 447.02,292.89 447.95,293.04 448.88,293.18 449.80,293.31 450.73,293.45 451.66,293.58 452.58,293.70 453.51,293.83 454.44,293.95 455.36,294.07 456.29,294.19 457.22,294.31 458.14,294.42 459.07,294.54 460.00,294.65 460.92,294.77 461.85,294.88 462.78,295.00 463.70,295.11 464.63,295.23 465.56,295.35 466.48,295.46 467.41,295.58 468.34,295.70 469.26,295.83 470.19,295.95 471.12,296.08 472.04,296.20 472.97,296.34 473.90,296.47 474.82,296.61 475.75,296.75 476.68,296.89 477.60,297.04 478.53,297.18 479.46,297.34 480.39,297.49 481.31,297.65 482.24,297.82 483.17,297.99 484.09,298.16 485.02,298.34 485.95,298.52 486.87,298.70 487.80,298.89 488.73,299.09 489.65,299.29 490.58,299.49 491.51,299.69 492.43,299.91 493.36,300.12 494.29,300.34 495.21,300.56 496.14,300.79 497.07,301.02 497.99,301.26 498.92,301.50 499.85,301.74 500.77,301.99 501.70,302.24 502.63,302.50 503.55,302.76 504.48,303.02 505.41,303.28 506.33,303.55 507.26,303.81 508.19,304.09 509.11,304.36 510.04,304.64 510.97,304.91 511.89,305.19 512.82,305.48 513.75,305.76 514.67,306.04 515.60,306.33 516.53,306.61 517.45,306.90 518.38,307.18 519.31,307.47 520.23,307.75 521.16,308.04 522.09,308.32 523.01,308.61 523.94,308.89 524.87,309.17 525.80,309.45 526.72,309.73 527.65,310.00 528.58,310.28 529.50,310.55 530.43,310.82 531.36,311.09 532.28,311.35 533.21,311.62 534.14,311.88 535.06,312.13 535.99,312.39 536.92,312.64 537.84,312.88 537.84,321.23 536.92,321.23 535.99,321.23 535.06,321.23 534.14,321.23 533.21,321.23 532.28,321.23 531.36,321.23 530.43,321.23 529.50,321.23 528.58,321.23 527.65,321.23 526.72,321.23 525.80,321.23 524.87,321.23 523.94,321.23 523.01,321.23 522.09,321.23 521.16,321.23 520.23,321.23 519.31,321.23 518.38,321.23 517.45,321.23 516.53,321.23 515.60,321.23 514.67,321.23 513.75,321.23 512.82,321.23 511.89,321.23 510.97,321.23 510.04,321.23 509.11,321.23 508.19,321.23 507.26,321.23 506.33,321.23 505.41,321.23 504.48,321.23 503.55,321.23 502.63,321.23 501.70,321.23 500.77,321.23 499.85,321.23 498.92,321.23 497.99,321.23 497.07,321.23 496.14,321.23 495.21,321.23 494.29,321.23 493.36,321.23 492.43,321.23 491.51,321.23 490.58,321.23 489.65,321.23 488.73,321.23 487.80,321.23 486.87,321.23 485.95,321.23 485.02,321.23 484.09,321.23 483.17,321.23 482.24,321.23 481.31,321.23 480.39,321.23 479.46,321.23 478.53,321.23 477.60,321.23 476.68,321.23 475.75,321.23 474.82,321.23 473.90,321.23 472.97,321.23 472.04,321.23 471.12,321.23 470.19,321.23 469.26,321.23 468.34,321.23 467.41,321.23 466.48,321.23 465.56,321.23 464.63,321.23 463.70,321.23 462.78,321.23 461.85,321.23 460.92,321.23 460.00,321.23 459.07,321.23 458.14,321.23 457.22,321.23 456.29,321.23 455.36,321.23 454.44,321.23 453.51,321.23 452.58,321.23 451.66,321.23 450.73,321.23 449.80,321.23 448.88,321.23 447.95,321.23 447.02,321.23 446.10,321.23 445.17,321.23 444.24,321.23 443.32,321.23 442.39,321.23 441.46,321.23 440.54,321.23 439.61,321.23 438.68,321.23 437.76,321.23 436.83,321.23 435.90,321.23 434.98,321.23 434.05,321.23 433.12,321.23 432.20,321.23 431.27,321.23 430.34,321.23 429.41,321.23 428.49,321.23 427.56,321.23 426.63,321.23 425.71,321.23 424.78,321.23 423.85,321.23 422.93,321.23 422.00,321.23 421.07,321.23 420.15,321.23 419.22,321.23 418.29,321.23 417.37,321.23 416.44,321.23 415.51,321.23 414.59,321.23 413.66,321.23 412.73,321.23 411.81,321.23 410.88,321.23 409.95,321.23 409.03,321.23 408.10,321.23 407.17,321.23 406.25,321.23 405.32,321.23 404.39,321.23 403.47,321.23 402.54,321.23 401.61,321.23 400.69,321.23 399.76,321.23 398.83,321.23 397.91,321.23 396.98,321.23 396.05,321.23 395.13,321.23 394.20,321.23 393.27,321.23 392.35,321.23 391.42,321.23 390.49,321.23 389.57,321.23 388.64,321.23 387.71,321.23 386.79,321.23 385.86,321.23 384.93,321.23 384.00,321.23 383.08,321.23 382.15,321.23 381.22,321.23 380.30,321.23 379.37,321.23 378.44,321.23 377.52,321.23 376.59,321.23 375.66,321.23 374.74,321.23 373.81,321.23 372.88,321.23 371.96,321.23 371.03,321.23 370.10,321.23 369.18,321.23 368.25,321.23 367.32,321.23 366.40,321.23 365.47,321.23 364.54,321.23 363.62,321.23 362.69,321.23 361.76,321.23 360.84,321.23 359.91,321.23 358.98,321.23 358.06,321.23 357.13,321.23 356.20,321.23 355.28,321.23 354.35,321.23 353.42,321.23 352.50,321.23 351.57,321.23 350.64,321.23 349.72,321.23 348.79,321.23 347.86,321.23 346.94,321.23 346.01,321.23 345.08,321.23 344.16,321.23 343.23,321.23 342.30,321.23 341.38,321.23 340.45,321.23 339.52,321.23 338.60,321.23 337.67,321.23 336.74,321.23 335.81,321.23 334.89,321.23 333.96,321.23 333.03,321.23 332.11,321.23 331.18,321.23 330.25,321.23 329.33,321.23 328.40,321.23 327.47,321.23 326.55,321.23 325.62,321.23 324.69,321.23 323.77,321.23 322.84,321.23 321.91,321.23 320.99,321.23 320.06,321.23 319.13,321.23 318.21,321.23 317.28,321.23 316.35,321.23 315.43,321.23 314.50,321.23 313.57,321.23 312.65,321.23 311.72,321.23 310.79,321.23 309.87,321.23 308.94,321.23 308.01,321.23 307.09,321.23 306.16,321.23 305.23,321.23 304.31,321.23 303.38,321.23 302.45,321.23 301.53,321.23 300.60,321.23 299.67,321.23 298.75,321.23 297.82,321.23 296.89,321.23 295.97,321.23 295.04,321.23 294.11,321.23 293.19,321.23 292.26,321.23 291.33,321.23 290.40,321.23 289.48,321.23 288.55,321.23 287.62,321.23 286.70,321.23 285.77,321.23 284.84,321.23 283.92,321.23 282.99,321.23 282.06,321.23 281.14,321.23 280.21,321.23 279.28,321.23 278.36,321.23 277.43,321.23 276.50,321.23 275.58,321.23 274.65,321.23 273.72,321.23 272.80,321.23 271.87,321.23 270.94,321.23 270.02,321.23 269.09,321.23 268.16,321.23 267.24,321.23 266.31,321.23 265.38,321.23 264.46,321.23 263.53,321.23 262.60,321.23 261.68,321.23 260.75,321.23 259.82,321.23 258.90,321.23 257.97,321.23 257.04,321.23 256.12,321.23 255.19,321.23 254.26,321.23 253.34,321.23 252.41,321.23 251.48,321.23 250.56,321.23 249.63,321.23 248.70,321.23 247.78,321.23 246.85,321.23 245.92,321.23 245.00,321.23 244.07,321.23 243.14,321.23 242.21,321.23 241.29,321.23 240.36,321.23 239.43,321.23 238.51,321.23 237.58,321.23 236.65,321.23 235.73,321.23 234.80,321.23 233.87,321.23 232.95,321.23 232.02,321.23 231.09,321.23 230.17,321.23 229.24,321.23 228.31,321.23 227.39,321.23 226.46,321.23 225.53,321.23 224.61,321.23 223.68,321.23 222.75,321.23 221.83,321.23 220.90,321.23 219.97,321.23 219.05,321.23 218.12,321.23 217.19,321.23 216.27,321.23 215.34,321.23 214.41,321.23 213.49,321.23 212.56,321.23 211.63,321.23 210.71,321.23 209.78,321.23 208.85,321.23 207.93,321.23 207.00,321.23 206.07,321.23 205.15,321.23 204.22,321.23 203.29,321.23 202.37,321.23 201.44,321.23 200.51,321.23 199.59,321.23 198.66,321.23 197.73,321.23 196.81,321.23 195.88,321.23 194.95,321.23 194.02,321.23 193.10,321.23 192.17,321.23 191.24,321.23 190.32,321.23 189.39,321.23 188.46,321.23 187.54,321.23 186.61,321.23 185.68,321.23 184.76,321.23 183.83,321.23 182.90,321.23 181.98,321.23 181.05,321.23 180.12,321.23 179.20,321.23 178.27,321.23 177.34,321.23 176.42,321.23 175.49,321.23 174.56,321.23 173.64,321.23 172.71,321.23 171.78,321.23 170.86,321.23 169.93,321.23 169.00,321.23 168.08,321.23 167.15,321.23 166.22,321.23 165.30,321.23 164.37,321.23 163.44,321.23 162.52,321.23 161.59,321.23 160.66,321.23 159.74,321.23 158.81,321.23 157.88,321.23 156.96,321.23 156.03,321.23 155.10,321.23 154.18,321.23 153.25,321.23 152.32,321.23 151.40,321.23 150.47,321.23 149.54,321.23 148.61,321.23 147.69,321.23 146.76,321.23 145.83,321.23 144.91,321.23 143.98,321.23 143.05,321.23 142.13,321.23 141.20,321.23 140.27,321.23 139.35,321.23 138.42,321.23 137.49,321.23 136.57,321.23 135.64,321.23 134.71,321.23 133.79,321.23 132.86,321.23 131.93,321.23 131.01,321.23 130.08,321.23 129.15,321.23 128.23,321.23 127.30,321.23 126.37,321.23 125.45,321.23 124.52,321.23 123.59,321.23 122.67,321.23 121.74,321.23 120.81,321.23 119.89,321.23 118.96,321.23 118.03,321.23 117.11,321.23 116.18,321.23 115.25,321.23 114.33,321.23 113.40,321.23 112.47,321.23 111.55,321.23 110.62,321.23 109.69,321.23 108.77,321.23 107.84,321.23 106.91,321.23 105.99,321.23 105.06,321.23 104.13,321.23 103.21,321.23 102.28,321.23 101.35,321.23 100.42,321.23 99.50,321.23 98.57,321.23 97.64,321.23 96.72,321.23 95.79,321.23 94.86,321.23 93.94,321.23 93.01,321.23 92.08,321.23 91.16,321.23 90.23,321.23 89.30,321.23 88.38,321.23 87.45,321.23 86.52,321.23 85.60,321.23 84.67,321.23 83.74,321.23 82.82,321.23 81.89,321.23 80.96,321.23 80.04,321.23 79.11,321.23 78.18,321.23 77.26,321.23 76.33,321.23 75.40,321.23 74.48,321.23 73.55,321.23 72.62,321.23 71.70,321.23 70.77,321.23 69.84,321.23 68.92,321.23 67.99,321.23 67.06,321.23 66.14,321.23 65.21,321.23 64.28,321.23 "
       style="stroke-width:3;stroke:none;stroke-linecap:butt;fill:#882255;fill-opacity:0.55;stroke-dasharray:none"
       id="polygon7" />
    <polyline
       points="64.28,211.75 65.21,208.20 66.14,204.61 67.06,200.97 67.99,197.30 68.92,193.60 69.84,189.86 70.77,186.11 71.70,182.34 72.62,178.54 73.55,174.74 74.48,170.92 75.40,167.10 76.33,163.28 77.26,159.47 78.18,155.67 79.11,151.87 80.04,148.10 80.96,144.35 81.89,140.62 82.82,136.94 83.74,133.28 84.67,129.66 85.60,126.10 86.52,122.58 87.45,119.12 88.38,115.73 89.30,112.38 90.23,109.13 91.16,105.94 92.08,102.80 93.01,99.79 93.94,96.85 94.86,93.97 95.79,91.23 96.72,88.56 97.64,85.99 98.57,83.55 99.50,81.18 100.42,78.94 101.35,76.83 102.28,74.79 103.21,72.91 104.13,71.14 105.06,69.46 105.99,67.96 106.91,66.56 107.84,65.25 108.77,64.13 109.69,63.11 110.62,62.20 111.55,61.47 112.47,60.82 113.40,60.32 114.33,59.97 115.25,59.71 116.18,59.60 117.11,59.63 118.03,59.75 118.96,60.04 119.89,60.44 120.81,60.92 121.74,61.59 122.67,62.34 123.59,63.19 124.52,64.21 125.45,65.30 126.37,66.50 127.30,67.83 128.23,69.24 129.15,70.76 130.08,72.39 131.01,74.09 131.93,75.90 132.86,77.80 133.79,79.76 134.71,81.83 135.64,83.97 136.57,86.16 137.49,88.46 138.42,90.80 139.35,93.20 140.27,95.68 141.20,98.20 142.13,100.77 143.05,103.40 143.98,106.06 144.91,108.77 145.83,111.52 146.76,114.29 147.69,117.10 148.61,119.93 149.54,122.77 150.47,125.65 151.40,128.53 152.32,131.42 153.25,134.33 154.18,137.24 155.10,140.15 156.03,143.06 156.96,145.96 157.88,148.86 158.81,151.74 159.74,154.61 160.66,157.47 161.59,160.30 162.52,163.12 163.44,165.91 164.37,168.68 165.30,171.42 166.22,174.12 167.15,176.80 168.08,179.45 169.00,182.05 169.93,184.62 170.86,187.15 171.78,189.63 172.71,192.08 173.64,194.48 174.56,196.84 175.49,199.16 176.42,201.42 177.34,203.63 178.27,205.82 179.20,207.92 180.12,210.00 181.05,212.03 181.98,213.99 182.90,215.91 183.83,217.79 184.76,219.60 185.68,221.37 186.61,223.09 187.54,224.75 188.46,226.37 189.39,227.94 190.32,229.45 191.24,230.93 192.17,232.33 193.10,233.70 194.02,235.04 194.95,236.30 195.88,237.53 196.81,238.72 197.73,239.84 198.66,240.94 199.59,241.99 200.51,242.99 201.44,243.97 202.37,244.89 203.29,245.77 204.22,246.63 205.15,247.44 206.07,248.21 207.00,248.96 207.93,249.65 208.85,250.33 209.78,250.97 210.71,251.57 211.63,252.15 212.56,252.71 213.49,253.22 214.41,253.72 215.34,254.19 216.27,254.63 217.19,255.06 218.12,255.45 219.05,255.82 219.97,256.18 220.90,256.51 221.83,256.82 222.75,257.12 223.68,257.39 224.61,257.65 225.53,257.89 226.46,258.12 227.39,258.33 228.31,258.53 229.24,258.71 230.17,258.88 231.09,259.03 232.02,259.17 232.95,259.30 233.87,259.42 234.80,259.53 235.73,259.63 236.65,259.71 237.58,259.79 238.51,259.86 239.43,259.91 240.36,259.96 241.29,260.00 242.21,260.03 243.14,260.05 244.07,260.07 245.00,260.07 245.92,260.07 246.85,260.06 247.78,260.05 248.70,260.03 249.63,259.99 250.56,259.96 251.48,259.92 252.41,259.87 253.34,259.81 254.26,259.75 255.19,259.68 256.12,259.61 257.04,259.53 257.97,259.45 258.90,259.36 259.82,259.26 260.75,259.17 261.68,259.06 262.60,258.96 263.53,258.84 264.46,258.73 265.38,258.61 266.31,258.48 267.24,258.36 268.16,258.23 269.09,258.09 270.02,257.95 270.94,257.81 271.87,257.67 272.80,257.52 273.72,257.37 274.65,257.22 275.58,257.07 276.50,256.91 277.43,256.75 278.36,256.59 279.28,256.43 280.21,256.26 281.14,256.10 282.06,255.93 282.99,255.76 283.92,255.58 284.84,255.41 285.77,255.23 286.70,255.05 287.62,254.87 288.55,254.69 289.48,254.51 290.40,254.32 291.33,254.13 292.26,253.94 293.19,253.75 294.11,253.55 295.04,253.36 295.97,253.16 296.89,252.96 297.82,252.76 298.75,252.55 299.67,252.34 300.60,252.13 301.53,251.92 302.45,251.71 303.38,251.49 304.31,251.28 305.23,251.06 306.16,250.83 307.09,250.61 308.01,250.38 308.94,250.16 309.87,249.93 310.79,249.70 311.72,249.47 312.65,249.24 313.57,249.00 314.50,248.77 315.43,248.54 316.35,248.31 317.28,248.08 318.21,247.85 319.13,247.62 320.06,247.39 320.99,247.17 321.91,246.95 322.84,246.73 323.77,246.52 324.69,246.31 325.62,246.11 326.55,245.91 327.47,245.72 328.40,245.54 329.33,245.36 330.25,245.19 331.18,245.03 332.11,244.88 333.03,244.74 333.96,244.61 334.89,244.49 335.81,244.38 336.74,244.29 337.67,244.21 338.60,244.14 339.52,244.09 340.45,244.05 341.38,244.03 342.30,244.03 343.23,244.04 344.16,244.07 345.08,244.11 346.01,244.18 346.94,244.26 347.86,244.36 348.79,244.49 349.72,244.63 350.64,244.78 351.57,244.97 352.50,245.17 353.42,245.38 354.35,245.63 355.28,245.89 356.20,246.17 357.13,246.47 358.06,246.79 358.98,247.13 359.91,247.50 360.84,247.88 361.76,248.28 362.69,248.70 363.62,249.14 364.54,249.60 365.47,250.07 366.40,250.56 367.32,251.08 368.25,251.60 369.18,252.14 370.10,252.71 371.03,253.28 371.96,253.86 372.88,254.46 373.81,255.07 374.74,255.70 375.66,256.33 376.59,256.98 377.52,257.63 378.44,258.30 379.37,258.97 380.30,259.65 381.22,260.33 382.15,261.02 383.08,261.72 384.00,262.42 384.93,263.12 385.86,263.82 386.79,264.53 387.71,265.23 388.64,265.94 389.57,266.64 390.49,267.35 391.42,268.05 392.35,268.74 393.27,269.44 394.20,270.12 395.13,270.81 396.05,271.48 396.98,272.16 397.91,272.82 398.83,273.47 399.76,274.12 400.69,274.76 401.61,275.39 402.54,276.01 403.47,276.62 404.39,277.22 405.32,277.82 406.25,278.39 407.17,278.96 408.10,279.52 409.03,280.06 409.95,280.59 410.88,281.12 411.81,281.62 412.73,282.12 413.66,282.61 414.59,283.08 415.51,283.54 416.44,283.98 417.37,284.42 418.29,284.84 419.22,285.25 420.15,285.65 421.07,286.04 422.00,286.41 422.93,286.77 423.85,287.13 424.78,287.46 425.71,287.79 426.63,288.11 427.56,288.42 428.49,288.72 429.41,289.00 430.34,289.28 431.27,289.55 432.20,289.80 433.12,290.05 434.05,290.29 434.98,290.52 435.90,290.75 436.83,290.96 437.76,291.17 438.68,291.37 439.61,291.56 440.54,291.75 441.46,291.93 442.39,292.10 443.32,292.27 444.24,292.43 445.17,292.59 446.10,292.74 447.02,292.89 447.95,293.04 448.88,293.18 449.80,293.31 450.73,293.45 451.66,293.58 452.58,293.70 453.51,293.83 454.44,293.95 455.36,294.07 456.29,294.19 457.22,294.31 458.14,294.42 459.07,294.54 460.00,294.65 460.92,294.77 461.85,294.88 462.78,295.00 463.70,295.11 464.63,295.23 465.56,295.35 466.48,295.46 467.41,295.58 468.34,295.70 469.26,295.83 470.19,295.95 471.12,296.08 472.04,296.20 472.97,296.34 473.90,296.47 474.82,296.61 475.75,296.75 476.68,296.89 477.60,297.04 478.53,297.18 479.46,297.34 480.39,297.49 481.31,297.65 482.24,297.82 483.17,297.99 484.09,298.16 485.02,298.34 485.95,298.52 486.87,298.70 487.80,298.89 488.73,299.09 489.65,299.29 490.58,299.49 491.51,299.69 492.43,299.91 493.36,300.12 494.29,300.34 495.21,300.56 496.14,300.79 497.07,301.02 497.99,301.26 498.92,301.50 499.85,301.74 500.77,301.99 501.70,302.24 502.63,302.50 503.55,302.76 504.48,303.02 505.41,303.28 506.33,303.55 507.26,303.81 508.19,304.09 509.11,304.36 510.04,304.64 510.97,304.91 511.89,305.19 512.82,305.48 513.75,305.76 514.67,306.04 515.60,306.33 516.53,306.61 517.45,306.90 518.38,307.18 519.31,307.47 520.23,307.75 521.16,308.04 522.09,308.32 523.01,308.61 523.94,308.89 524.87,309.17 525.80,309.45 526.72,309.73 527.65,310.00 528.58,310.28 529.50,310.55 530.43,310.82 531.36,311.09 532.28,311.35 533.21,311.62 534.14,311.88 535.06,312.13 535.99,312.39 536.92,312.64 537.84,312.88 "
       style="stroke-width:3;stroke:#882255;stroke-linecap:butt;stroke-dasharray:none"
       id="polyline7" />
    <rect
       x="40.60"
       y="5.48"
       width="520.92"
       height="330.79"
       style="stroke-width:3;stroke:#333333;stroke-dasharray:none"
       id="rect7" />
  </g>
  <g
     clip-path="url(#cpMC4wMHw1NjcuMDB8MC4wMHwzNjguMDA=)"
     id="g22">
    <text
       x="35.669998"
       y="68.93"
       text-anchor="end"
       style="font-size:8.8px;font-family:Arial;fill:#4d4d4d"
       textLength="17.129999"
       lengthAdjust="spacingAndGlyphs"
       id="text10"
       transform="matrix(1.5546244,0,0,1.5546244,-21.148114,-36.50605)">0.15</text>
    <polyline
       points="37.86,65.77 40.60,65.77 "
       style="stroke-width:2;stroke:#333333;stroke-linecap:butt;stroke-dasharray:none"
       id="polyline13" />
    <polyline
       points="96.45,339.01 96.45,336.27 "
       style="stroke-width:2;stroke:#333333;stroke-linecap:butt;stroke-dasharray:none"
       id="polyline14" />
    <polyline
       points="226.69,339.01 226.69,336.27 "
       style="stroke-width:2;stroke:#333333;stroke-linecap:butt;stroke-dasharray:none"
       id="polyline15" />
    <polyline
       points="356.94,339.01 356.94,336.27 "
       style="stroke-width:2;stroke:#333333;stroke-linecap:butt;stroke-dasharray:none"
       id="polyline16" />
    <polyline
       points="487.18,339.01 487.18,336.27 "
       style="stroke-width:2;stroke:#333333;stroke-linecap:butt;stroke-dasharray:none"
       id="polyline17" />
    <text
       x="96.449997"
       y="347.5"
       text-anchor="middle"
       style="font-size:8.8px;font-family:Arial;fill:#4d4d4d"
       textLength="7.8299999"
       lengthAdjust="spacingAndGlyphs"
       id="text17"
       transform="matrix(1.5821023,0,0,1.5821023,-57.535939,-196.9505)">-5</text>
    <text
       x="226.69"
       y="347.5"
       text-anchor="middle"
       style="font-size:8.8px;font-family:Arial;fill:#4d4d4d"
       textLength="4.9000001"
       lengthAdjust="spacingAndGlyphs"
       id="text18"
       transform="matrix(1.5546244,0,0,1.5546244,-125.68434,-187.39898)">0</text>
    <text
       x="356.94"
       y="347.5"
       text-anchor="middle"
       style="font-size:8.8px;font-family:Arial;fill:#4d4d4d"
       textLength="4.9000001"
       lengthAdjust="spacingAndGlyphs"
       id="text19"
       transform="matrix(1.5821025,0,0,1.5821025,-207.78588,-196.95057)">5</text>
    <text
       x="487.17999"
       y="347.5"
       text-anchor="middle"
       style="font-size:8.8px;font-family:Arial;fill:#4d4d4d"
       textLength="9.79"
       lengthAdjust="spacingAndGlyphs"
       id="text20"
       transform="matrix(1.5546244,0,0,1.5546244,-270.61948,-187.39898)">10</text>
    <text
       x="301.06"
       y="360.09"
       text-anchor="middle"
       style="font-size:11px;font-family:Arial"
       textLength="40.360001"
       lengthAdjust="spacingAndGlyphs"
       id="text21"
       transform="matrix(1.4721809,0,0,1.4721809,-159.89665,-166.02563)">log_size</text>
    <text
       transform="matrix(0,-1.4721809,1.4721809,0,14.682446,179.05673)"
       text-anchor="middle"
       style="font-size:11px;font-family:Arial"
       textLength="34.860001"
       lengthAdjust="spacingAndGlyphs"
       id="text22">Desnity</text>
    <text
       xml:space="preserve"
       style="font-style:normal;font-variant:normal;font-weight:normal;font-stretch:normal;font-size:14px;line-height:0.85;font-family:Arial;-inkscape-font-specification:'Arial, Normal';font-variant-ligatures:normal;font-variant-caps:normal;font-variant-numeric:normal;font-variant-east-asian:normal;text-align:center;letter-spacing:0px;word-spacing:0.75px;text-anchor:middle;fill:#ee8866;stroke-width:5;stroke-dasharray:none"
       x="-52.536064"
       y="268.08844"
       id="text23"><tspan
         sodipodi:role="line"
         id="tspan22"
         style="stroke-width:5"
         x="-52.536064"
         y="277.89899" /></text>
  </g>
</svg>
